<svg id="yas_logo" xmlns="http://www.w3.org/2000/svg" width="161.938" height="56.47" viewBox="0 0 161.938 56.47">
  <path id="Path_10" data-name="Path 10" d="M125.553,32.562a1.106,1.106,0,0,0-.742-.742l-11.765-3.6,11.765-3.6a1.106,1.106,0,0,0,.742-.742l4.683-15.32a1.109,1.109,0,0,0-.286-1.128,1.139,1.139,0,0,0-1.128-.286l-8.2,2.5,2.513-8.209a1.109,1.109,0,0,0-.286-1.128,1.139,1.139,0,0,0-1.128-.286L106.435,4.735a1.106,1.106,0,0,0-.742.742l-3.6,11.765L98.5,5.478a1.106,1.106,0,0,0-.742-.742L82.435.052a1.109,1.109,0,0,0-1.128.286,1.139,1.139,0,0,0-.286,1.128l2.513,8.209-8.2-2.513a1.123,1.123,0,0,0-1.413,1.4l4.683,15.32a1.106,1.106,0,0,0,.742.742l11.765,3.6-11.765,3.6a1.106,1.106,0,0,0-.742.742l-4.683,15.32a1.109,1.109,0,0,0,.286,1.128,1.123,1.123,0,0,0,.8.328,1.3,1.3,0,0,0,.328-.043l8.2-2.5-2.5,8.2a1.109,1.109,0,0,0,.286,1.128,1.123,1.123,0,0,0,.8.328,1.3,1.3,0,0,0,.328-.043l15.32-4.683a1.106,1.106,0,0,0,.742-.742l3.6-11.765,3.6,11.765a1.106,1.106,0,0,0,.742.742l15.32,4.683a1.3,1.3,0,0,0,.328.043,1.123,1.123,0,0,0,.8-.328,1.139,1.139,0,0,0,.286-1.128l-2.5-8.2,8.2,2.5a1.3,1.3,0,0,0,.328.043,1.123,1.123,0,0,0,.8-.328,1.139,1.139,0,0,0,.286-1.128Zm-23.3,1.628c-.029,0-.071-.014-.114-.014h-.129a.243.243,0,0,0-.1.014h-.029c-.071.014-.128.029-.2.043l-8.138,2.484,2.5-8.2h0a.422.422,0,0,0,.029-.143c0-.043.014-.071.014-.114v-.143a.243.243,0,0,0-.014-.1A1.506,1.506,0,0,0,96,27.75l-2.47-8.081,8.209,2.513h0a.422.422,0,0,0,.143.029.314.314,0,0,0,.114.014h.143a.314.314,0,0,0,.114-.014c.043-.014.1-.014.143-.029h.014l8.2-2.5-2.47,8.081a1.506,1.506,0,0,0-.071.271c0,.029-.014.071-.014.1v.143a.314.314,0,0,0,.014.114c.014.043.014.1.029.143h0l2.5,8.2-8.1-2.47a.979.979,0,0,0-.243-.071h0M90.188,16.314l-2.5-.771-.757-2.5,2.5.771Zm-2.5,24.571,2.5-.771-.771,2.513-2.5.771ZM116.5,15.543l-2.513.771.771-2.5,2.513-.771Zm-2.527,24.571,2.513.771.771,2.513-2.513-.771Zm-.785-21.2,4.526-1.385a1.106,1.106,0,0,0,.742-.742l1.385-4.526,7.624-2.327-3.883,12.721-12.721,3.883Zm.328-7.067a1.106,1.106,0,0,0-.742.742l-1.385,4.526-7.624,2.327L107.649,6.72,120.37,2.836l-2.327,7.624ZM92.772,17.1l-1.385-4.512a1.106,1.106,0,0,0-.742-.742l-4.526-1.385L83.791,2.822,96.512,6.706,100.4,19.427ZM85.7,16.771a1.106,1.106,0,0,0,.742.742L90.973,18.9,93.3,26.537,80.579,22.653,76.7,9.932l7.624,2.327ZM90.973,37.53l-4.526,1.385a1.106,1.106,0,0,0-.742.742L84.32,44.184,76.7,46.511,80.579,33.79,93.3,29.906ZM90.644,44.6a1.106,1.106,0,0,0,.742-.742l1.385-4.526L100.4,37,96.512,49.723,83.791,53.607l2.327-7.624Zm20.745-5.268,1.385,4.526a1.106,1.106,0,0,0,.742.742l4.54,1.385,2.327,7.624-12.721-3.883L103.78,37Zm7.082.328a1.106,1.106,0,0,0-.742-.742l-4.54-1.385-2.327-7.624,12.721,3.883,3.883,12.721-7.624-2.327Z" transform="translate(31.599 0.022)"/>
  <path id="Path_11" data-name="Path 11" d="M67.808,35.789H62.94V24.953a.454.454,0,0,0-.443-.443H60.713a.445.445,0,0,0-.443.443V37.817a.445.445,0,0,0,.443.443h7.1a.445.445,0,0,0,.443-.443V36.232a.445.445,0,0,0-.443-.443" transform="translate(25.78 10.516)"/>
  <path id="Path_12" data-name="Path 12" d="M60.488,35.789H55.62V24.953a.454.454,0,0,0-.443-.443H53.393a.445.445,0,0,0-.443.443V37.817a.445.445,0,0,0,.443.443h7.1a.445.445,0,0,0,.443-.443V36.232a.436.436,0,0,0-.443-.443" transform="translate(22.649 10.516)"/>
  <path id="Path_13" data-name="Path 13" d="M11.636,24.744a.421.421,0,0,0-.385-.214h-2a.448.448,0,0,0-.371.214L5.84,29.113,2.8,24.73a.432.432,0,0,0-.371-.2H.443a.433.433,0,0,0-.385.214.439.439,0,0,0,.014.457l4.412,6.468v6.154a.445.445,0,0,0,.443.443H6.71a.445.445,0,0,0,.443-.443V31.654L11.608,25.2a.44.44,0,0,0,.029-.457" transform="translate(0 10.524)"/>
  <path id="Path_14" data-name="Path 14" d="M22.613,30.14c-1.6-.657-2.242-1.256-2.242-2.113A1.468,1.468,0,0,1,22,26.741a5.958,5.958,0,0,1,2.627,1.042l.029.014a.482.482,0,0,0,.443.043.821.821,0,0,0,.343-.286l.742-1.1a.547.547,0,0,0,.071-.428.468.468,0,0,0-.214-.314A6.955,6.955,0,0,0,22.113,24.4c-3.041,0-4.44,1.97-4.44,3.8,0,2.484,2.1,3.626,3.684,4.255,1.7.685,2.413,1.356,2.413,2.256a1.558,1.558,0,0,1-1.685,1.428,5.663,5.663,0,0,1-2.827-1.156l-.057-.029a.555.555,0,0,0-.428-.1.481.481,0,0,0-.343.257l-.7,1.2c-.2.357-.071.485.114.671a6.34,6.34,0,0,0,4.312,1.528c2.941,0,4.526-2.013,4.526-3.912.014-2.47-2.056-3.641-4.069-4.455" transform="translate(7.541 10.468)"/>
  <path id="Path_15" data-name="Path 15" d="M43.278,24.747a.409.409,0,0,0-.428-.357h-.314a.427.427,0,0,0-.4.243l-4.226,9.08-4.226-9.08a.439.439,0,0,0-.4-.228H32.97a.386.386,0,0,0-.414.357l-2.313,13.05a.446.446,0,0,0,.1.385.423.423,0,0,0,.343.143h1.742a.46.46,0,0,0,.428-.357l1.1-7.21,3.369,7.5a.417.417,0,0,0,.4.257h.343a.411.411,0,0,0,.4-.257l3.341-7.5,1.128,7.21a.479.479,0,0,0,.443.343h1.77a.449.449,0,0,0,.343-.143.439.439,0,0,0,.071-.385Z" transform="translate(12.933 10.464)"/>
  <path id="Path_16" data-name="Path 16" d="M49.369,24.647a.4.4,0,0,0-.4-.257h-.2a.431.431,0,0,0-.4.257L42.344,37.711a.425.425,0,0,0,.014.414.412.412,0,0,0,.385.186h1.685a.66.66,0,0,0,.628-.428l.928-2.056h5.7l.928,2.056a.623.623,0,0,0,.628.428h1.685a.481.481,0,0,0,.385-.186.425.425,0,0,0,.014-.414Zm-2.356,8.881,1.813-4.083,1.856,4.083Z" transform="translate(18.092 10.464)"/>
  <path id="Path_17" data-name="Path 17" d="M14.569,24.647a.4.4,0,0,0-.4-.257h-.2a.417.417,0,0,0-.4.257L7.544,37.711h0a.425.425,0,0,0,.014.414.4.4,0,0,0,.371.186H9.643a.66.66,0,0,0,.628-.428l.928-2.056h5.7l.928,2.056a.623.623,0,0,0,.628.428h1.685a.481.481,0,0,0,.385-.186.425.425,0,0,0,.014-.414Zm-2.356,8.881,1.813-4.083,1.856,4.083Z" transform="translate(3.207 10.464)"/>
  <path id="Path_18" data-name="Path 18" d="M80.04,19.1h6.5a.445.445,0,0,0,.443-.443V10.35a.445.445,0,0,0-.443-.443h-1.8a.454.454,0,0,0-.443.443V16.66H80.211c-1.4,0-1.6-.914-1.6-1.913h0L78.6,5.467a.454.454,0,0,0-.443-.443h-1.8a.445.445,0,0,0-.443.443v9.652c0,2.556,1.485,3.983,4.126,3.983m4.569,2a.3.3,0,0,0-.3.3v1.87a.293.293,0,0,0,.3.3h2.084a.3.3,0,0,0,.3-.3V21.4a.293.293,0,0,0-.3-.3ZM72.616,9.893H70.688a.481.481,0,0,0-.485.485v6.268H67.376V10.421a.527.527,0,0,0-.528-.528H65.063a.536.536,0,0,0-.528.528v6.225H61.708v-6.3a.451.451,0,0,0-.457-.457H59.423a.47.47,0,0,0-.457.457L58.938,21.1h-4.1c-1.271,0-1.542-.557-1.585-1.428V14.1a.47.47,0,0,0-.086-.271.488.488,0,0,0-.371-.2H50.9a.46.46,0,0,0-.457.457v5.368a4.763,4.763,0,0,0,.514,2.27c.014.014.029.043.043.057a3.954,3.954,0,0,0,3.684,1.77h6.582a.451.451,0,0,0,.457-.457V19.073H72.673a.433.433,0,0,0,.428-.443V10.378a.491.491,0,0,0-.485-.485M8.3,23.585h6.51a.445.445,0,0,0,.443-.443V5.453a.445.445,0,0,0-.443-.443h-1.8a.454.454,0,0,0-.443.443V21.115L8.5,21.1c-1.4,0-1.613-.928-1.613-1.942L6.868,14.2a.549.549,0,0,0-.557-.557H4.627a.582.582,0,0,0-.557.585l.014,5.254c-.029,2.641,1.485,4.1,4.212,4.1M40.677,18.2a3.488,3.488,0,0,1-1.428.828,6.242,6.242,0,0,1-1.842.257,6.013,6.013,0,0,1-1.97-.3,3.415,3.415,0,0,1-1.471-1.014,1.856,1.856,0,0,1-.528.571,2.781,2.781,0,0,1-.642.343,2.837,2.837,0,0,1-.685.171,5.419,5.419,0,0,1-.657.043H27.071v.6a3.706,3.706,0,0,1-1.042,2.941,4.354,4.354,0,0,1-3.013.942h-4.74a.189.189,0,0,1-.214-.214V21.329a.189.189,0,0,1,.214-.214h4.24a3.469,3.469,0,0,0,.9-.1,1.3,1.3,0,0,0,.614-.343A1.448,1.448,0,0,0,24.4,20a4.218,4.218,0,0,0,.057-.9h-2.07a6.546,6.546,0,0,1-1.828-.186,3.134,3.134,0,0,1-1.342-.771,3.441,3.441,0,0,1-.842-1.385,6.4,6.4,0,0,1-.3-2.1,6.436,6.436,0,0,1,.371-2.284,4.476,4.476,0,0,1,.985-1.556A3.78,3.78,0,0,1,20.86,9.95a5.252,5.252,0,0,1,1.713-.271,6.048,6.048,0,0,1,1.813.257,3.346,3.346,0,0,1,1.413.828,3.773,3.773,0,0,1,.928,1.485,6.816,6.816,0,0,1,.328,2.242v2.17H31.24a2.493,2.493,0,0,0,.957-.171,1.336,1.336,0,0,0,.642-.757,1.8,1.8,0,0,0,.071-.671c-.014-.243-.029-.5-.029-.742a6.08,6.08,0,0,1,.357-2.142,3.84,3.84,0,0,1,.942-1.442,3.472,3.472,0,0,1,1.413-.8,5.924,5.924,0,0,1,1.785-.257,6.254,6.254,0,0,1,1.813.257,3.816,3.816,0,0,1,1.442.828,3.913,3.913,0,0,1,.942,1.513,6.665,6.665,0,0,1,.343,2.27,6.517,6.517,0,0,1-.328,2.184,3.737,3.737,0,0,1-.914,1.471M24.458,14.49A3.107,3.107,0,0,0,24,12.663a1.665,1.665,0,0,0-1.413-.585,1.693,1.693,0,0,0-1.428.657,2.927,2.927,0,0,0-.528,1.856,2.178,2.178,0,0,0,.514,1.685,2.169,2.169,0,0,0,1.513.385h1.813V14.49Zm14.906,0c0-1.628-.657-2.441-1.956-2.441a1.761,1.761,0,0,0-1.471.628,2.983,2.983,0,0,0-.471,1.813,2.9,2.9,0,0,0,.471,1.856,2.2,2.2,0,0,0,2.955,0,2.926,2.926,0,0,0,.471-1.856" transform="translate(1.741 2.175)"/>
  <path id="Path_19" data-name="Path 19" d="M57.91,16.28a.3.3,0,0,0-.3.3v1.87a.293.293,0,0,0,.3.3h2.084a.3.3,0,0,0,.3-.3V16.58a.293.293,0,0,0-.3-.3Z" transform="translate(24.642 6.995)"/>
</svg>
